<svg xmlns="http://www.w3.org/2000/svg" viewBox="0 0 32 32" width="32" height="32">
  <!-- 白色背景 -->
  <rect width="32" height="32" fill="white"/>
  
  <!-- 貓頭外輪廓 -->
  <path d="M16 6 C 20 6, 24 10, 24 14 C 24 18, 20 22, 16 22 C 12 22, 8 18, 8 14 C 8 10, 12 6, 16 6 Z" fill="black"/>
  
  <!-- 貓耳朵 -->
  <path d="M12 8 L 10 4 L 14 6 Z" fill="black"/>
  <path d="M20 8 L 22 4 L 18 6 Z" fill="black"/>
  
  <!-- 耳朵內部 -->
  <path d="M12 8 L 11 6 L 13 7 Z" fill="white"/>
  <path d="M20 8 L 21 6 L 19 7 Z" fill="white"/>
  
  <!-- 貓眼睛 -->
  <ellipse cx="12" cy="14" rx="2.5" ry="3" fill="white"/>
  <ellipse cx="20" cy="14" rx="2.5" ry="3" fill="white"/>
  
  <!-- 貓眼珠 -->
  <circle cx="12" cy="14" r="1.2" fill="black"/>
  <circle cx="20" cy="14" r="1.2" fill="black"/>
  
  <!-- 眼睛高光 -->
  <circle cx="12.5" cy="13.5" r="0.3" fill="white"/>
  <circle cx="20.5" cy="13.5" r="0.3" fill="white"/>
  
  <!-- 貓鼻子 -->
  <path d="M16 16 L 15 18 L 17 18 Z" fill="black"/>
  
  <!-- 貓嘴巴 -->
  <path d="M16 18 Q 14 20, 12 18" stroke="black" stroke-width="1.2" fill="none"/>
  <path d="M16 18 Q 18 20, 20 18" stroke="black" stroke-width="1.2" fill="none"/>
  
  <!-- 貓鬍鬚 -->
  <line x1="8" y1="16" x2="12" y2="17" stroke="black" stroke-width="0.8"/>
  <line x1="8" y1="18" x2="12" y2="18" stroke="black" stroke-width="0.8"/>
  <line x1="8" y1="20" x2="12" y2="19" stroke="black" stroke-width="0.8"/>
  
  <line x1="24" y1="16" x2="20" y2="17" stroke="black" stroke-width="0.8"/>
  <line x1="24" y1="18" x2="20" y2="18" stroke="black" stroke-width="0.8"/>
  <line x1="24" y1="20" x2="20" y2="19" stroke="black" stroke-width="0.8"/>
  
  <!-- 貓頭頂的毛髮紋理 -->
  <path d="M14 8 Q 16 7, 18 8" stroke="black" stroke-width="0.5" fill="none"/>
  <path d="M13 10 Q 16 9, 19 10" stroke="black" stroke-width="0.5" fill="none"/>
</svg>
