<svg xmlns="http://www.w3.org/2000/svg" viewBox="0 0 32 32" width="32" height="32">
  <!-- 白色背景 -->
  <rect width="32" height="32" fill="white"/>
  
  <!-- 貓的身體 (坐姿) -->
  <ellipse cx="16" cy="22" rx="6" ry="8" fill="black"/>
  
  <!-- 貓的後腿 -->
  <ellipse cx="12" cy="26" rx="2" ry="4" fill="black"/>
  <ellipse cx="20" cy="26" rx="2" ry="4" fill="black"/>
  
  <!-- 貓的前腿 (坐姿時前腿較直) -->
  <ellipse cx="14" cy="24" rx="1.5" ry="3" fill="black"/>
  <ellipse cx="18" cy="24" rx="1.5" ry="3" fill="black"/>
  
  <!-- 貓的尾巴 (捲曲) -->
  <path d="M22 20 Q 26 18, 28 22 Q 26 26, 22 24 Q 20 22, 22 20" fill="black"/>
  
  <!-- 貓頭 (向右看) -->
  <ellipse cx="16" cy="12" rx="5" ry="4.5" fill="black"/>
  
  <!-- 貓耳朵 -->
  <path d="M12 8 L 10 4 L 14 6 Z" fill="black"/>
  <path d="M20 8 L 22 4 L 18 6 Z" fill="black"/>
  
  <!-- 耳朵內部 -->
  <path d="M12 8 L 11 6 L 13 7 Z" fill="white"/>
  <path d="M20 8 L 21 6 L 19 7 Z" fill="white"/>
  
  <!-- 貓眼睛 (向右看) -->
  <ellipse cx="14" cy="11" rx="1.8" ry="2.2" fill="white"/>
  <ellipse cx="18.5" cy="11" rx="1.8" ry="2.2" fill="white"/>
  
  <!-- 貓眼珠 (向右看) -->
  <ellipse cx="14.5" cy="11" rx="1" ry="1.2" fill="black"/>
  <ellipse cx="19" cy="11" rx="1" ry="1.2" fill="black"/>
  
  <!-- 眼睛高光 -->
  <circle cx="14.8" cy="10.5" r="0.3" fill="white"/>
  <circle cx="19.3" cy="10.5" r="0.3" fill="white"/>
  
  <!-- 貓鼻子 -->
  <path d="M16 13 L 15.2 14 L 16.8 14 Z" fill="black"/>
  
  <!-- 貓嘴巴 (向右看時稍微傾斜) -->
  <path d="M16 14 Q 14.5 15.5, 13 14.5" stroke="black" stroke-width="0.8" fill="none"/>
  <path d="M16 14 Q 17.5 15.5, 19 14.5" stroke="black" stroke-width="0.8" fill="none"/>
  
  <!-- 貓鬍鬚 (向右看時右側鬍鬚更明顯) -->
  <line x1="10" y1="12" x2="13" y2="12.5" stroke="black" stroke-width="0.6"/>
  <line x1="10" y1="13.5" x2="13" y2="13.5" stroke="black" stroke-width="0.6"/>
  <line x1="10" y1="15" x2="13" y2="14.5" stroke="black" stroke-width="0.6"/>
  
  <line x1="22" y1="12" x2="19" y2="12.5" stroke="black" stroke-width="0.6"/>
  <line x1="22" y1="13.5" x2="19" y2="13.5" stroke="black" stroke-width="0.6"/>
  <line x1="22" y1="15" x2="19" y2="14.5" stroke="black" stroke-width="0.6"/>
  
  <!-- 貓頭頂的毛髮紋理 -->
  <path d="M13 9 Q 16 8, 19 9" stroke="black" stroke-width="0.5" fill="none"/>
  <path d="M12 10.5 Q 16 9.5, 20 10.5" stroke="black" stroke-width="0.5" fill="none"/>
  
  <!-- 身體上的毛髮紋理 -->
  <path d="M13 18 Q 16 17, 19 18" stroke="black" stroke-width="0.4" fill="none"/>
  <path d="M14 20 Q 16 19, 18 20" stroke="black" stroke-width="0.4" fill="none"/>
</svg>